<svg width="32" height="10" viewBox="0 0 32 10" fill="none" xmlns="http://www.w3.org/2000/svg">
<path d="M3.21875 9.5V2.2168H3.125L0.974609 3.77539V2.66211L3.22461 1.04492H4.27344V9.5H3.21875ZM9.54688 9.69922C7.67773 9.69922 6.56445 7.99414 6.56445 5.27539V5.26367C6.56445 2.54492 7.67773 0.845703 9.54688 0.845703C11.416 0.845703 12.541 2.54492 12.541 5.26367V5.27539C12.541 7.99414 11.416 9.69922 9.54688 9.69922ZM9.54688 8.7793C10.7598 8.7793 11.4805 7.43164 11.4805 5.27539V5.26367C11.4805 3.10742 10.7598 1.77148 9.54688 1.77148C8.33398 1.77148 7.625 3.10742 7.625 5.26367V5.27539C7.625 7.43164 8.33398 8.7793 9.54688 8.7793ZM17.1055 9.69922C15.2363 9.69922 14.123 7.99414 14.123 5.27539V5.26367C14.123 2.54492 15.2363 0.845703 17.1055 0.845703C18.9746 0.845703 20.0996 2.54492 20.0996 5.26367V5.27539C20.0996 7.99414 18.9746 9.69922 17.1055 9.69922ZM17.1055 8.7793C18.3184 8.7793 19.0391 7.43164 19.0391 5.27539V5.26367C19.0391 3.10742 18.3184 1.77148 17.1055 1.77148C15.8926 1.77148 15.1836 3.10742 15.1836 5.26367V5.27539C15.1836 7.43164 15.8926 8.7793 17.1055 8.7793ZM23.4102 5.49219C22.332 5.49219 21.6816 4.61328 21.6816 3.21289V3.20703C21.6816 1.80664 22.332 0.933594 23.4102 0.933594C24.4883 0.933594 25.1445 1.80664 25.1445 3.20703V3.21289C25.1445 4.61328 24.4883 5.49219 23.4102 5.49219ZM24.043 9.5H23.0938L28.8477 1.04492H29.7969L24.043 9.5ZM23.4102 4.79492C23.9902 4.79492 24.3301 4.20312 24.3301 3.21289V3.20703C24.3301 2.2168 23.9902 1.63086 23.4102 1.63086C22.8301 1.63086 22.4961 2.2168 22.4961 3.20703V3.21289C22.4961 4.20312 22.8301 4.79492 23.4102 4.79492ZM29.4688 9.61133C28.3906 9.61133 27.7402 8.73242 27.7402 7.33203V7.32617C27.7402 5.92578 28.3906 5.05273 29.4688 5.05273C30.5469 5.05273 31.2031 5.92578 31.2031 7.32617V7.33203C31.2031 8.73242 30.5469 9.61133 29.4688 9.61133ZM29.4688 8.91406C30.0488 8.91406 30.3887 8.32227 30.3887 7.33203V7.32617C30.3887 6.33594 30.0488 5.75 29.4688 5.75C28.8887 5.75 28.5547 6.33594 28.5547 7.32617V7.33203C28.5547 8.32227 28.8887 8.91406 29.4688 8.91406Z" fill="white"/>
</svg>
