<svg width="38" height="10" viewBox="0 0 38 10" fill="none" xmlns="http://www.w3.org/2000/svg">
<path d="M3.84961 9.69922C1.99805 9.69922 0.802734 8.72656 0.679688 7.34961L0.673828 7.28516H1.72852L1.73438 7.34961C1.81055 8.19336 2.68945 8.72656 3.9082 8.72656C5.05664 8.72656 5.89453 8.13477 5.89453 7.27344V7.26758C5.89453 6.56445 5.4082 6.08398 4.24805 5.82617L3.31055 5.62109C1.61719 5.24609 0.884766 4.4668 0.884766 3.24219V3.23633C0.890625 1.83594 2.11523 0.845703 3.86133 0.845703C5.54883 0.845703 6.72656 1.8418 6.81445 3.10156L6.82031 3.18359H5.76562L5.75391 3.10742C5.63672 2.36328 4.93359 1.8125 3.83203 1.81836C2.77734 1.82422 1.96289 2.32227 1.96289 3.20703V3.21289C1.96289 3.88672 2.42578 4.34375 3.57422 4.5957L4.51172 4.80664C6.27539 5.19922 6.97266 5.9082 6.97266 7.12695V7.13281C6.97266 8.71484 5.73633 9.69922 3.84961 9.69922ZM8.66016 9.5V0.675781H9.67969V5.94336H9.77344L12.5039 3.18359H13.7402L10.9863 5.83789L13.9219 9.5H12.6387L10.2715 6.5293L9.67969 7.10352V9.5H8.66016ZM17.4023 9.61133C15.5977 9.61133 14.5078 8.3457 14.5078 6.36523V6.35938C14.5078 4.4082 15.6211 3.07227 17.3379 3.07227C19.0547 3.07227 20.0977 4.34961 20.0977 6.23633V6.63477H15.5508C15.5801 7.94141 16.3008 8.70312 17.4258 8.70312C18.2812 8.70312 18.8086 8.29883 18.9785 7.91797L19.002 7.86523H20.0215L20.0098 7.91211C19.793 8.76758 18.8906 9.61133 17.4023 9.61133ZM17.332 3.98047C16.3945 3.98047 15.6797 4.61914 15.5684 5.82031H19.0605C18.9551 4.57227 18.2637 3.98047 17.332 3.98047ZM23.9238 9.54688C22.623 9.54688 22.0781 9.06641 22.0781 7.85938V4.02734H21.082V3.18359H22.0781V1.54883H23.1328V3.18359H24.5156V4.02734H23.1328V7.60156C23.1328 8.3457 23.3906 8.64453 24.0469 8.64453C24.2285 8.64453 24.3281 8.63867 24.5156 8.62109V9.48828C24.3164 9.52344 24.123 9.54688 23.9238 9.54688ZM28.5293 9.61133C26.7598 9.61133 25.6289 8.32812 25.6289 6.32422V6.3125C25.6289 4.34961 26.7539 3.07227 28.5234 3.07227C30.0586 3.07227 30.9785 3.95703 31.166 5.08203L31.1719 5.11719H30.1582L30.1523 5.09961C29.9941 4.47852 29.4316 3.97461 28.5234 3.97461C27.3867 3.97461 26.6719 4.88867 26.6719 6.3125V6.32422C26.6719 7.77734 27.3984 8.70898 28.5234 8.70898C29.373 8.70898 29.9121 8.33398 30.1465 7.63086L30.1582 7.5957L31.166 7.58984L31.1543 7.6543C30.8965 8.79688 30.0469 9.61133 28.5293 9.61133ZM32.7188 9.5V0.675781H33.7383V4.13281H33.832C34.1484 3.46484 34.7402 3.07227 35.6719 3.07227C37.0898 3.07227 37.8809 3.91016 37.8809 5.41016V9.5H36.8613V5.65625C36.8613 4.51953 36.3926 3.97461 35.3848 3.97461C34.377 3.97461 33.7383 4.6543 33.7383 5.76172V9.5H32.7188Z" fill="white"/>
</svg>
