<svg width="47" height="10" viewBox="0 0 47 10" fill="none" xmlns="http://www.w3.org/2000/svg">
<path d="M3.2793 0.833984C5.08398 0.833984 6.6543 2.11719 6.6543 5.16406V5.17578C6.6543 8.02344 5.37109 9.71094 3.24414 9.71094C1.69141 9.71094 0.53125 8.79102 0.261719 7.49609L0.25 7.43164H1.73828L1.75586 7.49023C1.97852 8.08203 2.5 8.46875 3.24414 8.46875C4.58594 8.46875 5.1543 7.15625 5.21875 5.53906C5.21875 5.47461 5.22461 5.41016 5.22461 5.3457H5.10742C4.79688 6.01367 4.05859 6.60547 2.89844 6.60547C1.27539 6.60547 0.138672 5.42188 0.138672 3.81641V3.80469C0.138672 2.08789 1.44531 0.833984 3.2793 0.833984ZM3.27344 5.44531C4.22852 5.44531 4.96094 4.75391 4.96094 3.79883V3.78711C4.96094 2.82031 4.22852 2.06445 3.29102 2.06445C2.35938 2.06445 1.61523 2.80859 1.61523 3.75195V3.76367C1.61523 4.74219 2.3125 5.44531 3.27344 5.44531ZM9.31445 4.02148C8.78125 4.02148 8.38281 3.61133 8.38281 3.0957C8.38281 2.57422 8.78125 2.16992 9.31445 2.16992C9.85352 2.16992 10.2461 2.57422 10.2461 3.0957C10.2461 3.61133 9.85352 4.02148 9.31445 4.02148ZM9.31445 8.36914C8.78125 8.36914 8.38281 7.96484 8.38281 7.44336C8.38281 6.92188 8.78125 6.51758 9.31445 6.51758C9.85352 6.51758 10.2461 6.92188 10.2461 7.44336C10.2461 7.96484 9.85352 8.36914 9.31445 8.36914ZM16.0762 9.5V7.87695H11.9395V6.64062C13.0352 4.73633 14.2363 2.79102 15.3848 1.04492H17.5234V6.62891H18.6602V7.87695H17.5234V9.5H16.0762ZM13.3457 6.66406H16.0996V2.25195H16.0117C15.1445 3.57617 14.166 5.14062 13.3457 6.57617V6.66406ZM22.1641 9.5V2.5332H22.0645L19.9609 4.02148V2.59766L22.1699 1.04492H23.6758V9.5H22.1641ZM28.7559 9.5L31.7559 1.04492H33.4609L36.4609 9.5H34.8789L34.1699 7.31445H31.041L30.3379 9.5H28.7559ZM32.5586 2.61523L31.4219 6.14844H33.7949L32.6582 2.61523H32.5586ZM37.9141 9.5V1.04492H39.6484L42.1914 7.54883H42.291L44.8281 1.04492H46.5625V9.5H45.2031V3.48828H45.0977L42.7539 9.5H41.7227L39.3789 3.48828H39.2793V9.5H37.9141Z" fill="white"/>
</svg>
